<svg width="119" height="119" viewBox="0 0 119 119" fill="#bc6c25" xmlns="http://www.w3.org/2000/svg">
<path d="M32.6731 77.0068C25.7172 81.1486 7.47908 89.6057 18.5873 100.189C24.0136 105.358 30.057 109.056 37.6552 109.056H81.0115C88.6097 109.056 94.6533 105.358 100.079 100.189C111.188 89.6057 92.9496 81.1486 85.9935 77.0068C69.682 67.2939 48.9847 67.2939 32.6731 77.0068Z" stroke="#bc6c25" stroke-width="8.5" stroke-linecap="round" stroke-linejoin="round"/>
<path d="M81.4584 32.8472C81.4584 45.0665 71.5528 54.9722 59.3334 54.9722C47.1141 54.9722 37.2084 45.0665 37.2084 32.8472C37.2084 20.6279 47.1141 10.7222 59.3334 10.7222C71.5528 10.7222 81.4584 20.6279 81.4584 32.8472Z" stroke="#bc6c25" stroke-width="8.5"/>
</svg>
